<!DOCTYPE svg PUBLIC "-//W3C//DTD SVG 1.1//EN" "http://www.w3.org/Graphics/SVG/1.1/DTD/svg11.dtd">
<!-- Uploaded to: SVG Repo, www.svgrepo.com, Transformed by: SVG Repo Mixer Tools -->
<svg width="256px" height="256px" viewBox="-5.2 -5.2 62.40 62.40" xmlns="http://www.w3.org/2000/svg" fill="#283b4d" stroke="#283b4d" stroke-width="0.0005200000000000001" transform="matrix(-1, 0, 0, 1, 0, 0)rotate(0)">
<g id="SVGRepo_bgCarrier" stroke-width="0" transform="translate(0,0), scale(1)">
<path transform="translate(-5.2, -5.2), scale(1.95)" d="M16,30.661509902526934C18.637883214446322,30.631093876052514,21.52177530970176,30.809172969570284,23.65036704018712,29.250824410154422C25.74552241395075,27.7169547104387,25.90854267542592,24.718986907086414,27.196664566122074,22.464397301276527C28.477647541578193,20.222302882617168,31.297854835996716,18.581084762370658,31.22100293263793,16C31.14387843401368,13.409760077441636,28.621796830123582,11.614848781827282,26.818214969194695,9.754100675384207C25.3384555451363,8.227438866482522,23.29401634867898,7.544806180538545,21.681941395004593,6.158588818223269C19.61127664882793,4.378031768973303,18.730577101223894,0.4961059001525646,16.000000000000004,0.45155715197324753C13.287621829811865,0.4073053152400408,12.305780625743338,4.249027426950176,10.210000503187382,5.971426695722304C8.524695573542802,7.356480379186841,6.0028517346342625,7.709463011243585,4.887554810345408,9.584226778397952C3.7696257122035224,11.463415110940284,4.509382426023675,13.82958811911455,4.244002462675175,15.999999999999998C3.93681159374819,18.512362663729405,2.4763687652091795,20.964811080089692,3.199450362262157,23.390400779123098C3.9618760138240567,25.947970788157473,5.926541468657721,28.110286984500217,8.247091529890888,29.428431376660058C10.561856609459555,30.743289719849354,13.338036864586389,30.692203581745655,16,30.661509902526934" fill="#807bc6" strokewidth="0"/>
</g>
<g id="SVGRepo_tracerCarrier" stroke-linecap="round" stroke-linejoin="round" stroke="#CCCCCC" stroke-width="0.7280000000000001"/>
<g id="SVGRepo_iconCarrier"> <rect fill="none" height="4.8" rx="1.6" width="27.2" x="12.4" y="26"/> <rect fill="none" height="4.8" rx="1.6" width="24" x="12.4" y="35.6"/> <g> <path d="m36.4 14.8h8.48a1.09 1.09 0 0 0 1.12-1.12 1 1 0 0 0 -.32-.8l-10.56-10.56a1 1 0 0 0 -.8-.32 1.09 1.09 0 0 0 -1.12 1.12v8.48a3.21 3.21 0 0 0 3.2 3.2z"/> <path d="m44.4 19.6h-11.2a4.81 4.81 0 0 1 -4.8-4.8v-11.2a1.6 1.6 0 0 0 -1.6-1.6h-16a4.81 4.81 0 0 0 -4.8 4.8v38.4a4.81 4.81 0 0 0 4.8 4.8h30.4a4.81 4.81 0 0 0 4.8-4.8v-24a1.6 1.6 0 0 0 -1.6-1.6zm-32-1.6a1.62 1.62 0 0 1 1.6-1.55h6.55a1.56 1.56 0 0 1 1.57 1.55v1.59a1.63 1.63 0 0 1 -1.59 1.58h-6.53a1.55 1.55 0 0 1 -1.58-1.58zm24 20.77a1.6 1.6 0 0 1 -1.6 1.6h-20.8a1.6 1.6 0 0 1 -1.6-1.6v-1.57a1.6 1.6 0 0 1 1.6-1.6h20.8a1.6 1.6 0 0 1 1.6 1.6zm3.2-9.6a1.6 1.6 0 0 1 -1.6 1.63h-24a1.6 1.6 0 0 1 -1.6-1.6v-1.6a1.6 1.6 0 0 1 1.6-1.6h24a1.6 1.6 0 0 1 1.6 1.6z"/> </g> </g>
</svg>